<?xml version="1.0" encoding="UTF-8"?>
<svg width="922.57" height="152.09" overflow="hidden" version="1.1" xmlns="http://www.w3.org/2000/svg">
 <defs>
  <clipPath id="clipPath12878">
   <rect width="1305" height="596"/>
  </clipPath>
  <clipPath id="clipPath12974">
   <rect width="1305" height="596"/>
  </clipPath>
  <clipPath id="clipPath13070">
   <rect width="1305" height="596"/>
  </clipPath>
  <clipPath id="clipPath13166">
   <rect width="1305" height="596"/>
  </clipPath>
  <clipPath id="clipPath13262">
   <rect width="1305" height="596"/>
  </clipPath>
  <clipPath id="clipPath13358">
   <rect width="1305" height="596"/>
  </clipPath>
  <clipPath id="clipPath13454">
   <rect width="1305" height="596"/>
  </clipPath>
  <clipPath id="clipPath13550">
   <rect width="1305" height="596"/>
  </clipPath>
  <clipPath id="clipPath13646">
   <rect width="1305" height="596"/>
  </clipPath>
  <clipPath id="clipPath13742">
   <rect width="1305" height="596"/>
  </clipPath>
  <clipPath id="clipPath13838">
   <rect width="1305" height="596"/>
  </clipPath>
  <clipPath id="clipPath13934">
   <rect width="1305" height="596"/>
  </clipPath>
  <clipPath id="clipPath14030">
   <rect width="1305" height="596"/>
  </clipPath>
  <clipPath id="clipPath14126">
   <rect width="1305" height="596"/>
  </clipPath>
  <clipPath id="clipPath14222">
   <rect width="1305" height="596"/>
  </clipPath>
  <clipPath id="clipPath14318">
   <rect width="1305" height="596"/>
  </clipPath>
  <clipPath id="clipPath14414">
   <rect width="1305" height="596"/>
  </clipPath>
  <clipPath id="clipPath14510">
   <rect width="1305" height="596"/>
  </clipPath>
  <clipPath id="clipPath14606">
   <rect width="1305" height="596"/>
  </clipPath>
  <clipPath id="clipPath14702">
   <rect width="1305" height="596"/>
  </clipPath>
  <clipPath id="clipPath14798">
   <rect width="1305" height="596"/>
  </clipPath>
  <clipPath id="clipPath14894">
   <rect width="1305" height="596"/>
  </clipPath>
  <clipPath id="clipPath14990">
   <rect width="1305" height="596"/>
  </clipPath>
  <clipPath id="clipPath15086">
   <rect width="1305" height="596"/>
  </clipPath>
  <clipPath id="clipPath15182">
   <rect width="1305" height="596"/>
  </clipPath>
  <clipPath id="clipPath15278">
   <rect width="1305" height="596"/>
  </clipPath>
  <clipPath id="clipPath15374">
   <rect width="1305" height="596"/>
  </clipPath>
  <clipPath id="clipPath15470">
   <rect width="1305" height="596"/>
  </clipPath>
  <clipPath id="clipPath15566">
   <rect width="1305" height="596"/>
  </clipPath>
  <clipPath id="clipPath15662">
   <rect width="1305" height="596"/>
  </clipPath>
  <clipPath id="clipPath15668">
   <rect width="1305" height="596"/>
  </clipPath>
  <clipPath id="clipPath15692">
   <rect width="1305" height="596"/>
  </clipPath>
  <clipPath id="clipPath15704">
   <rect width="1305" height="596"/>
  </clipPath>
  <clipPath id="clipPath15800">
   <rect width="1305" height="596"/>
  </clipPath>
  <clipPath id="clipPath15806">
   <rect width="1305" height="596"/>
  </clipPath>
  <clipPath id="clipPath15812">
   <rect width="1305" height="596"/>
  </clipPath>
  <clipPath id="clipPath15818">
   <rect width="1305" height="596"/>
  </clipPath>
  <clipPath id="clipPath15824">
   <rect width="1305" height="596"/>
  </clipPath>
  <clipPath id="clipPath15830">
   <rect width="1305" height="596"/>
  </clipPath>
  <clipPath id="clipPath14894-4">
   <rect width="1305" height="596"/>
  </clipPath>
  <clipPath id="clipPath15668-6">
   <rect width="1305" height="596"/>
  </clipPath>
  <clipPath id="clipPath15800-1">
   <rect width="1305" height="596"/>
  </clipPath>
 </defs>
 <rect width="922.57" height="152.09" fill="#fff" style="paint-order:stroke markers fill"/>
 <g transform="translate(-135.08 -171.73)">
  <g fill="none" fill-rule="evenodd" stroke="#4472c4" stroke-miterlimit="8">
   <g stroke-width="1.3427">
    <path d="m328.5 187.5v75.591" clip-path="url(#clipPath15830)"/>
    <path d="m147.5 187.5v75.591" clip-path="url(#clipPath15824)"/>
    <path d="m528.5 187.5v75.591" clip-path="url(#clipPath15818)"/>
    <path transform="translate(10)" d="m548.5 187.5v75.591" clip-path="url(#clipPath15812)"/>
    <path transform="translate(10)" d="m728.5 187.5v75.591" clip-path="url(#clipPath15806)"/>
   </g>
   <path transform="matrix(.95289 0 0 -.24996 1.2787 287.7)" d="m773.32 230.5-618.82 1e-4" clip-path="url(#clipPath15800)" stroke-width="4.1268"/>
   <path transform="matrix(.95504 0 0 -.24996 -.38755 245.37)" d="m773.32 230.5-618.82 1e-4" clip-path="url(#clipPath15800-1)" stroke-width="4.1221"/>
  </g>
  <rect transform="matrix(1 0 0 .10323 10 238.54)" x="541" y="266" width="198" height="155" clip-path="url(#clipPath15692)" fill="#dae3f3" stroke-width="3.1125"/>
  <rect transform="matrix(2.018 0 0 .10323 -545.66 238.54)" x="339" y="266" width="197" height="155" clip-path="url(#clipPath15668)" fill="#dae3f3" stroke-width="2.191"/>
  <path transform="translate(0 -.11099)" d="m150.54 274.11c0 1.937-1.564 3.5-3.501 3.5-1.936 0-3.5-1.563-3.5-3.5s1.564-3.5 3.5-3.5c1.937 0 3.501 1.563 3.501 3.5z" clip-path="url(#clipPath15662)" fill-rule="evenodd"/>
  <g fill="#afabab" fill-rule="evenodd">
   <path transform="translate(0 -.11099)" d="m170.54 274.11c0 1.929-1.564 3.5-3.501 3.5-1.936 0-3.5-1.571-3.5-3.5 0-1.937 1.564-3.5 3.5-3.5 1.937 0 3.501 1.563 3.501 3.5z" clip-path="url(#clipPath15566)"/>
   <path transform="matrix(1.1667 0 0 1 -30.767 -.11099)" d="m190.6 274.11c0 1.929-1.34 3.5-3 3.5-1.653 0-3-1.571-3-3.5 0-1.937 1.347-3.5 3-3.5 1.66 0 3 1.563 3 3.5z" clip-path="url(#clipPath15470)" stroke-width=".92582"/>
   <path transform="translate(0 -.11099)" d="m211.54 274.11c0 1.929-1.564 3.5-3.501 3.5-1.928 0-3.5-1.571-3.5-3.5 0-1.937 1.572-3.5 3.5-3.5 1.937 0 3.501 1.563 3.501 3.5z" clip-path="url(#clipPath15374)"/>
   <path transform="translate(0 -.11099)" d="m231.54 274.11c0 1.929-1.564 3.5-3.501 3.5-1.928 0-3.5-1.571-3.5-3.5 0-1.937 1.572-3.5 3.5-3.5 1.937 0 3.501 1.563 3.501 3.5z" clip-path="url(#clipPath15278)"/>
   <path transform="translate(0 -.11099)" d="m251.54 274.11c0 1.929-1.564 3.5-3.501 3.5-1.928 0-3.5-1.571-3.5-3.5 0-1.937 1.572-3.5 3.5-3.5 1.937 0 3.501 1.563 3.501 3.5z" clip-path="url(#clipPath15182)"/>
   <path transform="translate(0 -.11099)" d="m271.54 274.11c0 1.929-1.564 3.5-3.501 3.5-1.928 0-3.5-1.571-3.5-3.5 0-1.937 1.572-3.5 3.5-3.5 1.937 0 3.501 1.563 3.501 3.5z" clip-path="url(#clipPath15086)"/>
   <path transform="translate(0 -.11099)" d="m291.54 274.11c0 1.929-1.564 3.5-3.501 3.5-1.928 0-3.5-1.571-3.5-3.5 0-1.937 1.572-3.5 3.5-3.5 1.937 0 3.501 1.563 3.501 3.5z" clip-path="url(#clipPath14990)"/>
   <path transform="translate(0 -.11099)" d="m311.54 274.11c0 1.929-1.564 3.5-3.501 3.5-1.928 0-3.5-1.571-3.5-3.5 0-1.937 1.572-3.5 3.5-3.5 1.937 0 3.501 1.563 3.501 3.5z" clip-path="url(#clipPath14894)"/>
  </g>
  <path transform="translate(0 -.11099)" d="m331.54 274.11c0 1.929-1.564 3.5-3.501 3.5-1.936 0-3.5-1.571-3.5-3.5 0-1.937 1.564-3.5 3.5-3.5 1.937 0 3.501 1.563 3.501 3.5z" clip-path="url(#clipPath14798)" fill-rule="evenodd"/>
  <g fill="#afabab" fill-rule="evenodd">
   <path transform="translate(0 .88901)" d="m351.54 273.11c0 1.929-1.564 3.5-3.501 3.5-1.928 0-3.5-1.571-3.5-3.5 0-1.937 1.572-3.5 3.5-3.5 1.937 0 3.501 1.563 3.501 3.5z" clip-path="url(#clipPath14702)"/>
   <path transform="translate(0 -.11099)" d="m371.54 274.11c0 1.929-1.564 3.5-3.501 3.5-1.928 0-3.5-1.571-3.5-3.5 0-1.937 1.572-3.5 3.5-3.5 1.937 0 3.501 1.563 3.501 3.5z" clip-path="url(#clipPath14606)"/>
   <path transform="translate(0 -.11099)" d="m391.54 274.11c0 1.929-1.564 3.5-3.501 3.5-1.936 0-3.5-1.571-3.5-3.5 0-1.937 1.564-3.5 3.5-3.5 1.937 0 3.501 1.563 3.501 3.5z" clip-path="url(#clipPath14510)"/>
   <path transform="translate(0 -.11099)" d="m411.54 274.11c0 1.929-1.564 3.5-3.501 3.5-1.928 0-3.5-1.571-3.5-3.5 0-1.937 1.572-3.5 3.5-3.5 1.937 0 3.501 1.563 3.501 3.5z" clip-path="url(#clipPath14414)"/>
   <path transform="translate(0 -.11099)" d="m431.54 274.11c0 1.929-1.564 3.5-3.501 3.5-1.928 0-3.5-1.571-3.5-3.5 0-1.937 1.572-3.5 3.5-3.5 1.937 0 3.501 1.563 3.501 3.5z" clip-path="url(#clipPath14318)"/>
   <path transform="translate(0 -.11099)" d="m451.54 274.11c0 1.929-1.563 3.5-3.5 3.5-1.936 0-3.5-1.571-3.5-3.5 0-1.937 1.564-3.5 3.5-3.5 1.937 0 3.5 1.563 3.5 3.5z" clip-path="url(#clipPath14222)"/>
   <path transform="translate(0 -.11099)" d="m471.54 274.11c0 1.929-1.564 3.5-3.501 3.5-1.928 0-3.5-1.571-3.5-3.5 0-1.937 1.572-3.5 3.5-3.5 1.937 0 3.501 1.563 3.501 3.5z" clip-path="url(#clipPath14126)"/>
   <path transform="translate(0 -.11099)" d="m491.54 274.11c0 1.929-1.564 3.5-3.501 3.5-1.928 0-3.5-1.571-3.5-3.5 0-1.937 1.572-3.5 3.5-3.5 1.937 0 3.501 1.563 3.501 3.5z" clip-path="url(#clipPath14030)"/>
   <path transform="translate(0 -.11099)" d="m511.54 274.11c0 1.929-1.564 3.5-3.501 3.5-1.936 0-3.5-1.571-3.5-3.5 0-1.937 1.564-3.5 3.5-3.5 1.937 0 3.501 1.563 3.501 3.5z" clip-path="url(#clipPath13934)"/>
  </g>
  <path transform="translate(0 -.11099)" d="m531.54 274.11c0 1.929-1.564 3.5-3.501 3.5-1.928 0-3.5-1.571-3.5-3.5 0-1.937 1.572-3.5 3.5-3.5 1.937 0 3.501 1.563 3.501 3.5z" clip-path="url(#clipPath13838)" fill-rule="evenodd"/>
  <path transform="translate(10 -.11099)" d="m552.54 274.11c0 1.929-1.564 3.5-3.501 3.5-1.928 0-3.5-1.571-3.5-3.5 0-1.937 1.572-3.5 3.5-3.5 1.937 0 3.501 1.563 3.501 3.5z" clip-path="url(#clipPath13742)" fill-rule="evenodd"/>
  <g fill="#afabab" fill-rule="evenodd">
   <path transform="translate(10 -.11099)" d="m572.54 274.11c0 1.929-1.564 3.5-3.501 3.5-1.928 0-3.5-1.571-3.5-3.5 0-1.937 1.572-3.5 3.5-3.5 1.937 0 3.501 1.563 3.501 3.5z" clip-path="url(#clipPath13646)"/>
   <path transform="translate(10 -.11099)" d="m592.54 274.11c0 1.929-1.564 3.5-3.501 3.5-1.928 0-3.5-1.571-3.5-3.5 0-1.937 1.572-3.5 3.5-3.5 1.937 0 3.501 1.563 3.501 3.5z" clip-path="url(#clipPath13550)"/>
   <path transform="translate(10 -.11099)" d="m612.54 274.11c0 1.929-1.564 3.5-3.501 3.5-1.936 0-3.5-1.571-3.5-3.5 0-1.937 1.564-3.5 3.5-3.5 1.937 0 3.501 1.563 3.501 3.5z" clip-path="url(#clipPath13454)"/>
   <path transform="translate(10 -.11099)" d="m632.54 274.11c0 1.929-1.564 3.5-3.501 3.5-1.928 0-3.5-1.571-3.5-3.5 0-1.937 1.572-3.5 3.5-3.5 1.937 0 3.501 1.563 3.501 3.5z" clip-path="url(#clipPath13358)"/>
   <path transform="translate(10 -.11099)" d="m652.54 274.11c0 1.929-1.564 3.5-3.501 3.5-1.928 0-3.5-1.571-3.5-3.5 0-1.937 1.572-3.5 3.5-3.5 1.937 0 3.501 1.563 3.501 3.5z" clip-path="url(#clipPath13262)"/>
   <path transform="translate(10 -.11099)" d="m672.54 274.11c0 1.929-1.564 3.5-3.501 3.5-1.936 0-3.5-1.571-3.5-3.5 0-1.937 1.564-3.5 3.5-3.5 1.937 0 3.501 1.563 3.501 3.5z" clip-path="url(#clipPath13166)"/>
   <path transform="translate(10 -.11099)" d="m692.54 274.11c0 1.929-1.564 3.5-3.501 3.5-1.928 0-3.5-1.571-3.5-3.5 0-1.937 1.572-3.5 3.5-3.5 1.937 0 3.501 1.563 3.501 3.5z" clip-path="url(#clipPath13070)"/>
   <path transform="translate(10 -.11099)" d="m712.54 274.11c0 1.929-1.564 3.5-3.501 3.5-1.928 0-3.5-1.571-3.5-3.5 0-1.937 1.572-3.5 3.5-3.5 1.937 0 3.501 1.563 3.501 3.5z" clip-path="url(#clipPath12974)"/>
  </g>
  <path transform="translate(10 -.11099)" d="m732.54 274.11c0 1.929-1.564 3.5-3.501 3.5-1.936 0-3.5-1.571-3.5-3.5 0-1.937 1.564-3.5 3.5-3.5 1.937 0 3.501 1.563 3.501 3.5z" clip-path="url(#clipPath12878)" fill-rule="evenodd"/>
 </g>
 <g transform="translate(-135.08 -171.73)" fill="#afabab" font-family="Arial" stroke="#ffffff" stroke-width="12" style="paint-order:stroke markers fill">
  <g font-size="27px">
   <text x="320.86401" y="240" style="paint-order:stroke markers fill">9</text>
   <text x="139.957" y="240" style="paint-order:stroke markers fill">0</text>
   <text x="139.957" y="197.33098" style="paint-order:stroke markers fill">0.0</text>
   <text x="306.12912" y="197.33098" style="paint-order:stroke markers fill">90.0</text>
   <text x="506.586" y="240" style="paint-order:stroke markers fill">19</text>
   <text x="550.22223" y="240" style="paint-order:stroke markers fill">20</text>
   <text x="716.49115" y="240" style="paint-order:stroke markers fill">29</text>
  </g>
  <g font-size="26.667px" stroke-linecap="round">
   <text x="469.09055" y="197.21323" style="paint-order:stroke markers fill" xml:space="preserve"><tspan x="469.09055" y="197.21323">190.0</tspan></text>
   <text x="551.92126" y="197.21323" style="paint-order:stroke markers fill" xml:space="preserve"><tspan x="551.92126" y="197.21323">400.0</tspan></text>
   <text x="679.04803" y="197.21323" style="paint-order:stroke markers fill" xml:space="preserve"><tspan x="679.04803" y="197.21323">490.0</tspan></text>
  </g>
 </g>
 <g font-family="Arial" font-size="26.667px" stroke-linecap="round" stroke-width="12">
  <g fill="#2f5597" fill-opacity=".86667">
   <text x="652.89844" y="109.16477" style="paint-order:stroke markers fill" xml:space="preserve"><tspan x="652.89844" y="109.16477">Interpolated</tspan></text>
   <text x="654.76038" y="67.7416" style="paint-order:stroke markers fill" xml:space="preserve"><tspan x="654.76038" y="67.7416">Tie Indices</tspan></text>
   <text x="654.76038" y="25.414087" style="paint-order:stroke markers fill" xml:space="preserve"><tspan x="654.76038" y="25.414087">Tie Values</tspan></text>
  </g>
  <g fill="#4e6ea7">
   <text x="828.89844" y="109.16477" style="paint-order:stroke markers fill" xml:space="preserve"><tspan x="828.89844" y="109.16477">Size 30</tspan></text>
   <text x="830.76038" y="67.7416" style="paint-order:stroke markers fill" xml:space="preserve"><tspan x="830.76038" y="67.7416">Size 5</tspan></text>
   <text x="830.76038" y="25.414087" style="paint-order:stroke markers fill" xml:space="preserve"><tspan x="830.76038" y="25.414087">Size 5</tspan></text>
  </g>
 </g>
 <path transform="matrix(1.1667 0 0 1 -934.21 -425.24)" d="m808 562.5c0-1.933 1.343-3.5 3-3.5s3 1.567 3 3.5-1.343 3.5-3 3.5-3-1.567-3-3.5z" clip-path="url(#clipPath15704)" fill-rule="evenodd" stroke-width=".92582"/>
 <rect transform="matrix(.18256 0 0 .10323 330.09 101.81)" x="339" y="266" width="197" height="155" clip-path="url(#clipPath15668-6)" fill="#dae3f3" stroke-width="7.2846"/>
 <path transform="translate(-155.08 -136.85)" d="m311.54 274.11c0 1.929-1.564 3.5-3.501 3.5-1.928 0-3.5-1.571-3.5-3.5 0-1.937 1.572-3.5 3.5-3.5 1.937 0 3.501 1.563 3.501 3.5z" clip-path="url(#clipPath14894-4)" fill="#afabab" fill-rule="evenodd"/>
 <g fill="#000000" font-family="Arial" font-size="26.667px" stroke-dasharray="2.66667, 5.33333" stroke-linecap="round" stroke-width="2.6667">
  <text x="20.621582" y="146.65178" xml:space="preserve"><tspan x="20.621582" y="146.65178" font-size="26.667px">Tie Point</tspan></text>
  <text x="435.78445" y="146.80803" xml:space="preserve"><tspan x="435.78445" y="146.80803" font-size="26.667px">Continous Area</tspan></text>
  <text x="163.27679" y="146.78963" xml:space="preserve"><tspan x="163.27679" y="146.78963" font-size="26.667px">Interpolated Point</tspan></text>
 </g>
</svg>
