<svg width="8534" height="3401" xmlns="http://www.w3.org/2000/svg" xmlns:xlink="http://www.w3.org/1999/xlink" xml:space="preserve" overflow="hidden"><defs><clipPath id="clip0"><rect x="2603" y="4381" width="8534" height="3401"/></clipPath><clipPath id="clip1"><rect x="2603" y="4381" width="8534" height="3401"/></clipPath></defs><g clip-path="url(#clip0)" transform="translate(-2603 -4381)"><g clip-path="url(#clip1)"><rect x="4908" y="6366" width="6226" height="1416" fill="#F7A413" fill-opacity="0.211765"/><rect x="4908" y="5732" width="6226" height="630" fill="#BA93F5" fill-opacity="0.211765"/><rect x="4908" y="5056" width="6226" height="674" fill="#F383C5" fill-opacity="0.356863"/><path d="M5135.83 5160 6340.17 5160 6420 5239.84 6420 5639 5056 5639 5056 5239.84Z" fill="#2F5597" fill-rule="evenodd" fill-opacity="1"/><text fill="#FFFFFF" fill-opacity="1" font-family="Garamond,Garamond_MSFontService,sans-serif" font-style="normal" font-variant="normal" font-weight="700" font-stretch="normal" font-size="248" text-anchor="start" direction="ltr" writing-mode="lr-tb" unicode-bidi="normal" text-decoration="none" transform="matrix(1 0 0 1 5330.23 5499)">Node A</text><path d="M5591.5 7669C5550.35 7669 5517 7635.65 5517 7594.5L5517 6518.5C5517 6477.35 5550.35 6444 5591.5 6444M5889.5 6444C5930.65 6444 5964 6477.35 5964 6518.5L5964 7594.5C5964 7635.65 5930.65 7669 5889.5 7669" stroke="#2F5597" stroke-width="13.75" stroke-linecap="butt" stroke-linejoin="miter" stroke-miterlimit="8" stroke-opacity="1" fill="none" fill-rule="evenodd"/><text fill="#2F5597" fill-opacity="1" font-family="Garamond,Garamond_MSFontService,sans-serif" font-style="normal" font-variant="normal" font-weight="700" font-stretch="normal" font-size="220" text-anchor="start" direction="ltr" writing-mode="lr-tb" unicode-bidi="normal" text-decoration="none" transform="matrix(1 0 0 1 5623.4 6651)">#</text><text fill="#2F5597" fill-opacity="1" font-family="Garamond,Garamond_MSFontService,sans-serif" font-style="normal" font-variant="normal" font-weight="700" font-stretch="normal" font-size="220" text-anchor="start" direction="ltr" writing-mode="lr-tb" unicode-bidi="normal" text-decoration="none" transform="matrix(1 0 0 1 5770.07 6651)">0</text><text fill="#2F5597" fill-opacity="1" font-family="Garamond,Garamond_MSFontService,sans-serif" font-style="normal" font-variant="normal" font-weight="700" font-stretch="normal" font-size="220" text-anchor="start" direction="ltr" writing-mode="lr-tb" unicode-bidi="normal" text-decoration="none" transform="matrix(1 0 0 1 5631.5 6953)">#</text><text fill="#2F5597" fill-opacity="1" font-family="Garamond,Garamond_MSFontService,sans-serif" font-style="normal" font-variant="normal" font-weight="700" font-stretch="normal" font-size="220" text-anchor="start" direction="ltr" writing-mode="lr-tb" unicode-bidi="normal" text-decoration="none" transform="matrix(1 0 0 1 5778.16 6953)">1</text><text fill="#2F5597" fill-opacity="1" font-family="Garamond,Garamond_MSFontService,sans-serif" font-style="normal" font-variant="normal" font-weight="700" font-stretch="normal" font-size="220" text-anchor="start" direction="ltr" writing-mode="lr-tb" unicode-bidi="normal" text-decoration="none" transform="matrix(1 0 0 1 5614.14 7509)">#n</text><text fill="#2F5597" fill-opacity="1" font-family="Garamond,Garamond_MSFontService,sans-serif" font-style="normal" font-variant="normal" font-weight="700" font-stretch="normal" font-size="220" text-anchor="start" direction="ltr" writing-mode="lr-tb" unicode-bidi="normal" text-decoration="none" transform="matrix(6.12323e-17 1 -1 6.12323e-17 5740.94 7119)">…</text><path d="M9435.83 5160 10921.2 5160 11001 5239.83 11001 5639 9356 5639 9356 5239.83Z" fill="#2F5597" fill-rule="evenodd" fill-opacity="1"/><text fill="#FFFFFF" fill-opacity="1" font-family="Garamond,Garamond_MSFontService,sans-serif" font-style="normal" font-variant="normal" font-weight="700" font-stretch="normal" font-size="248" text-anchor="start" direction="ltr" writing-mode="lr-tb" unicode-bidi="normal" text-decoration="none" transform="matrix(1 0 0 1 10020.4 5499)">. . . </text><path d="M5056.5 5890C5056.5 5846.65 5091.65 5811.5 5135 5811.5L6342 5811.5C6385.35 5811.5 6420.5 5846.65 6420.5 5890L6420.5 6204C6420.5 6247.35 6385.35 6282.5 6342 6282.5L5135 6282.5C5091.65 6282.5 5056.5 6247.35 5056.5 6204Z" stroke="#172C51" stroke-width="4.58333" stroke-linecap="butt" stroke-linejoin="miter" stroke-miterlimit="8" stroke-opacity="1" fill="#2F5597" fill-rule="evenodd" fill-opacity="1"/><text fill="#FFFFFF" fill-opacity="1" font-family="Garamond,Garamond_MSFontService,sans-serif" font-style="normal" font-variant="normal" font-weight="700" font-stretch="normal" font-size="248" text-anchor="start" direction="ltr" writing-mode="lr-tb" unicode-bidi="normal" text-decoration="none" transform="matrix(1 0 0 1 5277.3 6126)">Cable A1</text><path d="M7072.5 7681C7031.36 7681 6998 7647.64 6998 7606.5L6998 6531.5C6998 6490.36 7031.36 6457 7072.5 6457M7370.5 6457C7411.64 6457 7445 6490.36 7445 6531.5L7445 7606.5C7445 7647.64 7411.64 7681 7370.5 7681" stroke="#2F5597" stroke-width="13.75" stroke-linecap="butt" stroke-linejoin="miter" stroke-miterlimit="8" stroke-opacity="1" fill="none" fill-rule="evenodd"/><text fill="#2F5597" fill-opacity="1" font-family="Garamond,Garamond_MSFontService,sans-serif" font-style="normal" font-variant="normal" font-weight="700" font-stretch="normal" font-size="220" text-anchor="start" direction="ltr" writing-mode="lr-tb" unicode-bidi="normal" text-decoration="none" transform="matrix(1 0 0 1 7104.72 6663)">#</text><text fill="#2F5597" fill-opacity="1" font-family="Garamond,Garamond_MSFontService,sans-serif" font-style="normal" font-variant="normal" font-weight="700" font-stretch="normal" font-size="220" text-anchor="start" direction="ltr" writing-mode="lr-tb" unicode-bidi="normal" text-decoration="none" transform="matrix(1 0 0 1 7251.38 6663)">0</text><text fill="#2F5597" fill-opacity="1" font-family="Garamond,Garamond_MSFontService,sans-serif" font-style="normal" font-variant="normal" font-weight="700" font-stretch="normal" font-size="220" text-anchor="start" direction="ltr" writing-mode="lr-tb" unicode-bidi="normal" text-decoration="none" transform="matrix(1 0 0 1 7112.82 6965)">#</text><text fill="#2F5597" fill-opacity="1" font-family="Garamond,Garamond_MSFontService,sans-serif" font-style="normal" font-variant="normal" font-weight="700" font-stretch="normal" font-size="220" text-anchor="start" direction="ltr" writing-mode="lr-tb" unicode-bidi="normal" text-decoration="none" transform="matrix(1 0 0 1 7259.48 6965)">1</text><text fill="#2F5597" fill-opacity="1" font-family="Garamond,Garamond_MSFontService,sans-serif" font-style="normal" font-variant="normal" font-weight="700" font-stretch="normal" font-size="220" text-anchor="start" direction="ltr" writing-mode="lr-tb" unicode-bidi="normal" text-decoration="none" transform="matrix(1 0 0 1 7095.46 7521)">#n</text><text fill="#2F5597" fill-opacity="1" font-family="Garamond,Garamond_MSFontService,sans-serif" font-style="normal" font-variant="normal" font-weight="700" font-stretch="normal" font-size="220" text-anchor="start" direction="ltr" writing-mode="lr-tb" unicode-bidi="normal" text-decoration="none" transform="matrix(6.12323e-17 1 -1 6.12323e-17 7222.26 7131)">…</text><path d="M9348.5 5901C9348.5 5858.75 9382.75 5824.5 9425 5824.5L9731 5824.5C9773.25 5824.5 9807.5 5858.75 9807.5 5901L9807.5 6218C9807.5 6260.25 9773.25 6294.5 9731 6294.5L9425 6294.5C9382.75 6294.5 9348.5 6260.25 9348.5 6218Z" stroke="#172C51" stroke-width="4.58333" stroke-linecap="butt" stroke-linejoin="miter" stroke-miterlimit="8" stroke-opacity="1" fill="#2F5597" fill-rule="evenodd" fill-opacity="1"/><text fill="#FFFFFF" fill-opacity="1" font-family="Garamond,Garamond_MSFontService,sans-serif" font-style="normal" font-variant="normal" font-weight="700" font-stretch="normal" font-size="248" text-anchor="start" direction="ltr" writing-mode="lr-tb" unicode-bidi="normal" text-decoration="none" transform="matrix(1 0 0 1 9453.82 6138)">…</text><path d="M9951.5 5901C9951.5 5858.75 9985.75 5824.5 10028 5824.5L10334 5824.5C10376.2 5824.5 10410.5 5858.75 10410.5 5901L10410.5 6218C10410.5 6260.25 10376.2 6294.5 10334 6294.5L10028 6294.5C9985.75 6294.5 9951.5 6260.25 9951.5 6218Z" stroke="#172C51" stroke-width="4.58333" stroke-linecap="butt" stroke-linejoin="miter" stroke-miterlimit="8" stroke-opacity="1" fill="#2F5597" fill-rule="evenodd" fill-opacity="1"/><text fill="#FFFFFF" fill-opacity="1" font-family="Garamond,Garamond_MSFontService,sans-serif" font-style="normal" font-variant="normal" font-weight="700" font-stretch="normal" font-size="248" text-anchor="start" direction="ltr" writing-mode="lr-tb" unicode-bidi="normal" text-decoration="none" transform="matrix(1 0 0 1 10056.9 6138)">…</text><path d="M10545.5 5901C10545.5 5858.75 10579.8 5824.5 10622 5824.5L10928 5824.5C10970.2 5824.5 11004.5 5858.75 11004.5 5901L11004.5 6218C11004.5 6260.25 10970.2 6294.5 10928 6294.5L10622 6294.5C10579.8 6294.5 10545.5 6260.25 10545.5 6218Z" stroke="#172C51" stroke-width="4.58333" stroke-linecap="butt" stroke-linejoin="miter" stroke-miterlimit="8" stroke-opacity="1" fill="#2F5597" fill-rule="evenodd" fill-opacity="1"/><text fill="#FFFFFF" fill-opacity="1" font-family="Garamond,Garamond_MSFontService,sans-serif" font-style="normal" font-variant="normal" font-weight="700" font-stretch="normal" font-size="248" text-anchor="start" direction="ltr" writing-mode="lr-tb" unicode-bidi="normal" text-decoration="none" transform="matrix(1 0 0 1 10650.5 6138)">…</text><path d="M9422.5 7687C9381.36 7687 9348 7653.64 9348 7612.5L9348 6537.5C9348 6496.36 9381.36 6463 9422.5 6463M9720.5 6463C9761.64 6463 9795 6496.36 9795 6537.5L9795 7612.5C9795 7653.64 9761.64 7687 9720.5 7687" stroke="#2F5597" stroke-width="13.75" stroke-linecap="butt" stroke-linejoin="miter" stroke-miterlimit="8" stroke-opacity="1" fill="none" fill-rule="evenodd"/><text fill="#2F5597" fill-opacity="1" font-family="Garamond,Garamond_MSFontService,sans-serif" font-style="normal" font-variant="normal" font-weight="700" font-stretch="normal" font-size="220" text-anchor="start" direction="ltr" writing-mode="lr-tb" unicode-bidi="normal" text-decoration="none" transform="matrix(1 0 0 1 9454.72 6669)">#</text><text fill="#2F5597" fill-opacity="1" font-family="Garamond,Garamond_MSFontService,sans-serif" font-style="normal" font-variant="normal" font-weight="700" font-stretch="normal" font-size="220" text-anchor="start" direction="ltr" writing-mode="lr-tb" unicode-bidi="normal" text-decoration="none" transform="matrix(1 0 0 1 9601.39 6669)">0</text><text fill="#2F5597" fill-opacity="1" font-family="Garamond,Garamond_MSFontService,sans-serif" font-style="normal" font-variant="normal" font-weight="700" font-stretch="normal" font-size="220" text-anchor="start" direction="ltr" writing-mode="lr-tb" unicode-bidi="normal" text-decoration="none" transform="matrix(1 0 0 1 9462.82 6971)">#</text><text fill="#2F5597" fill-opacity="1" font-family="Garamond,Garamond_MSFontService,sans-serif" font-style="normal" font-variant="normal" font-weight="700" font-stretch="normal" font-size="220" text-anchor="start" direction="ltr" writing-mode="lr-tb" unicode-bidi="normal" text-decoration="none" transform="matrix(1 0 0 1 9609.49 6971)">1</text><text fill="#2F5597" fill-opacity="1" font-family="Garamond,Garamond_MSFontService,sans-serif" font-style="normal" font-variant="normal" font-weight="700" font-stretch="normal" font-size="220" text-anchor="start" direction="ltr" writing-mode="lr-tb" unicode-bidi="normal" text-decoration="none" transform="matrix(1 0 0 1 9445.46 7527)">#n</text><text fill="#2F5597" fill-opacity="1" font-family="Garamond,Garamond_MSFontService,sans-serif" font-style="normal" font-variant="normal" font-weight="700" font-stretch="normal" font-size="220" text-anchor="start" direction="ltr" writing-mode="lr-tb" unicode-bidi="normal" text-decoration="none" transform="matrix(6.12323e-17 1 -1 6.12323e-17 9572.27 7137)">…</text><path d="M10021.5 7680C9980.36 7680 9947 7646.65 9947 7605.5L9947 6529.5C9947 6488.35 9980.36 6455 10021.5 6455M10319.5 6455C10360.6 6455 10394 6488.35 10394 6529.5L10394 7605.5C10394 7646.65 10360.6 7680 10319.5 7680" stroke="#2F5597" stroke-width="13.75" stroke-linecap="butt" stroke-linejoin="miter" stroke-miterlimit="8" stroke-opacity="1" fill="none" fill-rule="evenodd"/><text fill="#2F5597" fill-opacity="1" font-family="Garamond,Garamond_MSFontService,sans-serif" font-style="normal" font-variant="normal" font-weight="700" font-stretch="normal" font-size="220" text-anchor="start" direction="ltr" writing-mode="lr-tb" unicode-bidi="normal" text-decoration="none" transform="matrix(1 0 0 1 10053.5 6662)">#</text><text fill="#2F5597" fill-opacity="1" font-family="Garamond,Garamond_MSFontService,sans-serif" font-style="normal" font-variant="normal" font-weight="700" font-stretch="normal" font-size="220" text-anchor="start" direction="ltr" writing-mode="lr-tb" unicode-bidi="normal" text-decoration="none" transform="matrix(1 0 0 1 10200.1 6662)">0</text><text fill="#2F5597" fill-opacity="1" font-family="Garamond,Garamond_MSFontService,sans-serif" font-style="normal" font-variant="normal" font-weight="700" font-stretch="normal" font-size="220" text-anchor="start" direction="ltr" writing-mode="lr-tb" unicode-bidi="normal" text-decoration="none" transform="matrix(1 0 0 1 10061.5 6964)">#</text><text fill="#2F5597" fill-opacity="1" font-family="Garamond,Garamond_MSFontService,sans-serif" font-style="normal" font-variant="normal" font-weight="700" font-stretch="normal" font-size="220" text-anchor="start" direction="ltr" writing-mode="lr-tb" unicode-bidi="normal" text-decoration="none" transform="matrix(1 0 0 1 10208.2 6964)">1</text><text fill="#2F5597" fill-opacity="1" font-family="Garamond,Garamond_MSFontService,sans-serif" font-style="normal" font-variant="normal" font-weight="700" font-stretch="normal" font-size="220" text-anchor="start" direction="ltr" writing-mode="lr-tb" unicode-bidi="normal" text-decoration="none" transform="matrix(1 0 0 1 10044.2 7520)">#n</text><text fill="#2F5597" fill-opacity="1" font-family="Garamond,Garamond_MSFontService,sans-serif" font-style="normal" font-variant="normal" font-weight="700" font-stretch="normal" font-size="220" text-anchor="start" direction="ltr" writing-mode="lr-tb" unicode-bidi="normal" text-decoration="none" transform="matrix(6.12323e-17 1 -1 6.12323e-17 10171 7130)">…</text><path d="M10618.5 7687C10577.4 7687 10544 7653.64 10544 7612.5L10544 6537.5C10544 6496.36 10577.4 6463 10618.5 6463M10916.5 6463C10957.6 6463 10991 6496.36 10991 6537.5L10991 7612.5C10991 7653.64 10957.6 7687 10916.5 7687" stroke="#2F5597" stroke-width="13.75" stroke-linecap="butt" stroke-linejoin="miter" stroke-miterlimit="8" stroke-opacity="1" fill="none" fill-rule="evenodd"/><text fill="#2F5597" fill-opacity="1" font-family="Garamond,Garamond_MSFontService,sans-serif" font-style="normal" font-variant="normal" font-weight="700" font-stretch="normal" font-size="220" text-anchor="start" direction="ltr" writing-mode="lr-tb" unicode-bidi="normal" text-decoration="none" transform="matrix(1 0 0 1 10650.7 6669)">#</text><text fill="#2F5597" fill-opacity="1" font-family="Garamond,Garamond_MSFontService,sans-serif" font-style="normal" font-variant="normal" font-weight="700" font-stretch="normal" font-size="220" text-anchor="start" direction="ltr" writing-mode="lr-tb" unicode-bidi="normal" text-decoration="none" transform="matrix(1 0 0 1 10797.4 6669)">0</text><text fill="#2F5597" fill-opacity="1" font-family="Garamond,Garamond_MSFontService,sans-serif" font-style="normal" font-variant="normal" font-weight="700" font-stretch="normal" font-size="220" text-anchor="start" direction="ltr" writing-mode="lr-tb" unicode-bidi="normal" text-decoration="none" transform="matrix(1 0 0 1 10658.8 6971)">#</text><text fill="#2F5597" fill-opacity="1" font-family="Garamond,Garamond_MSFontService,sans-serif" font-style="normal" font-variant="normal" font-weight="700" font-stretch="normal" font-size="220" text-anchor="start" direction="ltr" writing-mode="lr-tb" unicode-bidi="normal" text-decoration="none" transform="matrix(1 0 0 1 10805.5 6971)">1</text><text fill="#2F5597" fill-opacity="1" font-family="Garamond,Garamond_MSFontService,sans-serif" font-style="normal" font-variant="normal" font-weight="700" font-stretch="normal" font-size="220" text-anchor="start" direction="ltr" writing-mode="lr-tb" unicode-bidi="normal" text-decoration="none" transform="matrix(1 0 0 1 10641.5 7527)">#n</text><text fill="#2F5597" fill-opacity="1" font-family="Garamond,Garamond_MSFontService,sans-serif" font-style="normal" font-variant="normal" font-weight="700" font-stretch="normal" font-size="220" text-anchor="start" direction="ltr" writing-mode="lr-tb" unicode-bidi="normal" text-decoration="none" transform="matrix(6.12323e-17 1 -1 6.12323e-17 10768.3 7137)">…</text><rect x="4908" y="4383" width="6226" height="674" fill="#00B0F0" fill-opacity="0.356863"/><path d="M5279.5 4489 11004 4489 11004 4712.5C11004 4835.94 10903.9 4936 10780.5 4936L5056 4936 5056 4712.5C5056 4589.06 5156.06 4489 5279.5 4489Z" fill="#2F5597" fill-rule="evenodd" fill-opacity="1"/><text fill="#FFFFFF" fill-opacity="1" font-family="Garamond,Garamond_MSFontService,sans-serif" font-style="normal" font-variant="normal" font-weight="700" font-stretch="normal" font-size="330" text-anchor="start" direction="ltr" writing-mode="lr-tb" unicode-bidi="normal" text-decoration="none" transform="matrix(1 0 0 1 7416.59 4817)">Network</text><path d="M6671.83 5169 9124.17 5169 9204 5248.83 9204 5648 6592 5648 6592 5248.83Z" fill="#2F5597" fill-rule="evenodd" fill-opacity="1"/><text fill="#FFFFFF" fill-opacity="1" font-family="Garamond,Garamond_MSFontService,sans-serif" font-style="normal" font-variant="normal" font-weight="700" font-stretch="normal" font-size="248" text-anchor="start" direction="ltr" writing-mode="lr-tb" unicode-bidi="normal" text-decoration="none" transform="matrix(1 0 0 1 7487.49 5508)">Node B</text><path d="M7210 6059 7524.58 6064.86" stroke="#2F5597" stroke-width="13.75" stroke-linecap="butt" stroke-linejoin="miter" stroke-miterlimit="8" stroke-opacity="1" fill="none" fill-rule="evenodd"/><path d="M7931.5 5902C7931.5 5858.65 7966.65 5823.5 8010 5823.5L9126 5823.5C9169.35 5823.5 9204.5 5858.65 9204.5 5902L9204.5 6216C9204.5 6259.35 9169.35 6294.5 9126 6294.5L8010 6294.5C7966.65 6294.5 7931.5 6259.35 7931.5 6216Z" stroke="#172C51" stroke-width="4.58333" stroke-linecap="butt" stroke-linejoin="miter" stroke-miterlimit="8" stroke-opacity="1" fill="#2F5597" fill-rule="evenodd" fill-opacity="1"/><text fill="#FFFFFF" fill-opacity="1" font-family="Garamond,Garamond_MSFontService,sans-serif" font-style="normal" font-variant="normal" font-weight="700" font-stretch="normal" font-size="248" text-anchor="start" direction="ltr" writing-mode="lr-tb" unicode-bidi="normal" text-decoration="none" transform="matrix(1 0 0 1 8095.01 6138)">Cable B2</text><path d="M6592.5 5909C6592.5 5865.65 6627.65 5830.5 6671 5830.5L7767 5830.5C7810.35 5830.5 7845.5 5865.65 7845.5 5909L7845.5 6223C7845.5 6266.35 7810.35 6301.5 7767 6301.5L6671 6301.5C6627.65 6301.5 6592.5 6266.35 6592.5 6223Z" stroke="#172C51" stroke-width="4.58333" stroke-linecap="butt" stroke-linejoin="miter" stroke-miterlimit="8" stroke-opacity="1" fill="#2F5597" fill-rule="evenodd" fill-opacity="1"/><text fill="#FFFFFF" fill-opacity="1" font-family="Garamond,Garamond_MSFontService,sans-serif" font-style="normal" font-variant="normal" font-weight="700" font-stretch="normal" font-size="248" text-anchor="start" direction="ltr" writing-mode="lr-tb" unicode-bidi="normal" text-decoration="none" transform="matrix(1 0 0 1 6754.97 6145)">Cable B1</text><path d="M8437.5 7692C8396.36 7692 8363 7658.64 8363 7617.5L8363 6542.5C8363 6501.36 8396.36 6468 8437.5 6468M8735.5 6468C8776.64 6468 8810 6501.36 8810 6542.5L8810 7617.5C8810 7658.64 8776.64 7692 8735.5 7692" stroke="#2F5597" stroke-width="13.75" stroke-linecap="butt" stroke-linejoin="miter" stroke-miterlimit="8" stroke-opacity="1" fill="none" fill-rule="evenodd"/><text fill="#2F5597" fill-opacity="1" font-family="Garamond,Garamond_MSFontService,sans-serif" font-style="normal" font-variant="normal" font-weight="700" font-stretch="normal" font-size="220" text-anchor="start" direction="ltr" writing-mode="lr-tb" unicode-bidi="normal" text-decoration="none" transform="matrix(1 0 0 1 8469.55 6674)">#</text><text fill="#2F5597" fill-opacity="1" font-family="Garamond,Garamond_MSFontService,sans-serif" font-style="normal" font-variant="normal" font-weight="700" font-stretch="normal" font-size="220" text-anchor="start" direction="ltr" writing-mode="lr-tb" unicode-bidi="normal" text-decoration="none" transform="matrix(1 0 0 1 8616.21 6674)">0</text><text fill="#2F5597" fill-opacity="1" font-family="Garamond,Garamond_MSFontService,sans-serif" font-style="normal" font-variant="normal" font-weight="700" font-stretch="normal" font-size="220" text-anchor="start" direction="ltr" writing-mode="lr-tb" unicode-bidi="normal" text-decoration="none" transform="matrix(1 0 0 1 8477.65 6976)">#</text><text fill="#2F5597" fill-opacity="1" font-family="Garamond,Garamond_MSFontService,sans-serif" font-style="normal" font-variant="normal" font-weight="700" font-stretch="normal" font-size="220" text-anchor="start" direction="ltr" writing-mode="lr-tb" unicode-bidi="normal" text-decoration="none" transform="matrix(1 0 0 1 8624.31 6976)">1</text><text fill="#2F5597" fill-opacity="1" font-family="Garamond,Garamond_MSFontService,sans-serif" font-style="normal" font-variant="normal" font-weight="700" font-stretch="normal" font-size="220" text-anchor="start" direction="ltr" writing-mode="lr-tb" unicode-bidi="normal" text-decoration="none" transform="matrix(1 0 0 1 8460.29 7532)">#n</text><text fill="#2F5597" fill-opacity="1" font-family="Garamond,Garamond_MSFontService,sans-serif" font-style="normal" font-variant="normal" font-weight="700" font-stretch="normal" font-size="220" text-anchor="start" direction="ltr" writing-mode="lr-tb" unicode-bidi="normal" text-decoration="none" transform="matrix(6.12323e-17 1 -1 6.12323e-17 8587.09 7142)">…</text><path d="M0 0 0.000360892 226.928" stroke="#2F5597" stroke-width="13.75" stroke-linecap="butt" stroke-linejoin="miter" stroke-miterlimit="8" stroke-opacity="1" fill="none" fill-rule="evenodd" transform="matrix(1 0 0 -1 7218 5829.93)"/><path d="M0 0 0.000360892 272.978" stroke="#2F5597" stroke-width="13.75" stroke-linecap="butt" stroke-linejoin="miter" stroke-miterlimit="8" stroke-opacity="1" fill="none" fill-rule="evenodd" transform="matrix(1 0 0 -1 8568 5822.98)"/><path d="M0 0 0.000360892 184.817" stroke="#2F5597" stroke-width="13.75" stroke-linecap="butt" stroke-linejoin="miter" stroke-miterlimit="8" stroke-opacity="1" fill="none" fill-rule="evenodd" transform="matrix(1 0 0 -1 9578 5823.82)"/><path d="M10181.1 5823.71 10179 5639" stroke="#2F5597" stroke-width="13.75" stroke-linecap="butt" stroke-linejoin="miter" stroke-miterlimit="8" stroke-opacity="1" fill="none" fill-rule="evenodd"/><path d="M0 0 0.000360892 220.247" stroke="#2F5597" stroke-width="13.75" stroke-linecap="butt" stroke-linejoin="miter" stroke-miterlimit="8" stroke-opacity="1" fill="none" fill-rule="evenodd" transform="matrix(1 0 0 -1 10774 5823.25)"/><path d="M0 0 0.000360892 172.484" stroke="#2F5597" stroke-width="13.75" stroke-linecap="butt" stroke-linejoin="miter" stroke-miterlimit="8" stroke-opacity="1" fill="none" fill-rule="evenodd" transform="matrix(1 0 0 -1 5738 5811.48)"/><path d="M0 0 0.000360892 306.976" stroke="#2F5597" stroke-width="13.75" stroke-linecap="butt" stroke-linejoin="miter" stroke-miterlimit="8" stroke-opacity="1" fill="none" fill-rule="evenodd" transform="matrix(1 0 0 -1 5738 5159.98)"/><path d="M0 0 0.000360892 306.976" stroke="#2F5597" stroke-width="13.75" stroke-linecap="butt" stroke-linejoin="miter" stroke-miterlimit="8" stroke-opacity="1" fill="none" fill-rule="evenodd" transform="matrix(1 0 0 -1 7898 5168.98)"/><path d="M0 0 0.000360892 264.453" stroke="#2F5597" stroke-width="13.75" stroke-linecap="butt" stroke-linejoin="miter" stroke-miterlimit="8" stroke-opacity="1" fill="none" fill-rule="evenodd" transform="matrix(1 0 0 -1 10179 5159.45)"/><text fill="#F383C5" fill-opacity="1" font-family="Garamond,Garamond_MSFontService,sans-serif" font-style="normal" font-variant="normal" font-weight="700" font-stretch="normal" font-size="367" text-anchor="start" direction="ltr" writing-mode="lr-tb" unicode-bidi="normal" text-decoration="none" transform="matrix(1 0 0 1 3737.53 5506)">Node</text><text fill="#BA93F5" fill-opacity="1" font-family="Garamond,Garamond_MSFontService,sans-serif" font-style="normal" font-variant="normal" font-weight="700" font-stretch="normal" font-size="367" text-anchor="start" direction="ltr" writing-mode="lr-tb" unicode-bidi="normal" text-decoration="none" transform="matrix(1 0 0 1 3748.41 6197)">Cable</text><text fill="#F7A413" fill-opacity="1" font-family="Garamond,Garamond_MSFontService,sans-serif" font-style="normal" font-variant="normal" font-weight="700" font-stretch="normal" font-size="367" text-anchor="start" direction="ltr" writing-mode="lr-tb" unicode-bidi="normal" text-decoration="none" transform="matrix(1 0 0 1 2827.86 7128)">Acquisition</text><text fill="#00B0F0" fill-opacity="1" font-family="Garamond,Garamond_MSFontService,sans-serif" font-style="normal" font-variant="normal" font-weight="700" font-stretch="normal" font-size="367" text-anchor="start" direction="ltr" writing-mode="lr-tb" unicode-bidi="normal" text-decoration="none" transform="matrix(1 0 0 1 3291.57 4846)">Network</text></g></g></svg>