<?xml version="1.0" encoding="UTF-8"?>
<!-- Created with Inkscape (http://www.inkscape.org/) -->
<svg width="235.05mm" height="99.784mm" version="1.1" viewBox="0 0 235.05 99.784" xmlns="http://www.w3.org/2000/svg">
 <g transform="translate(17.931 -7.4605)">
  <g>
   <g transform="matrix(1.47 0 0 1.4705 71.926 39.139)">
    <rect transform="matrix(.68029 0 0 .68005 -48.931 -26.616)" x="71.926" y="39.139" width="66.148" height="51.467" fill="#ff8b80" stroke="#fff" stroke-linecap="round" stroke-width=".3" style="paint-order:stroke markers fill"/>
    <g fill="none" stroke="#000" stroke-width=".20405">
     <path d="m5 0v35"/>
     <path d="m10 0v35"/>
     <path d="m15 0v35"/>
     <path d="m20 0v35"/>
     <path d="m25 0v35"/>
     <path d="m30 0v35"/>
     <path d="m35 0v35"/>
     <path d="m40 0v35"/>
     <path d="m0 5h45"/>
     <path d="m0 10h45"/>
     <path d="m0 15h45"/>
     <path d="m0 20h45"/>
     <path d="m0 25h45"/>
     <path d="m0 30h45"/>
    </g>
    <rect width="45" height="35" fill="none" stroke="#000" stroke-width=".20405"/>
   </g>
   <rect x="71.926" y="26.405" width="66.148" height="7.3524" fill="#ececec" stroke="#000" stroke-width=".3"/>
   <rect transform="matrix(-8.9727e-6 -1 1 -5.4319e-6 0 0)" x="-90.606" y="58.043" width="51.467" height="7.3498" fill="#ececec" stroke="#000" stroke-width=".3"/>
  </g>
  <g fill="#000000">
   <text x="90.165413" y="103.66684" font-family="'courier new'" font-size="7.0556px" stroke-linecap="round" stroke-width="1.5" style="paint-order:stroke markers fill" xml:space="preserve"><tspan x="90.165413" y="103.66684" fill="#000000" font-family="'courier new'" font-weight="bold" stroke-width="1.5">da.data</tspan></text>
   <text transform="scale(.26458)" font-family="'Courier New'" font-size="26.667px" style="paint-order:stroke markers fill;shape-inside:url(#rect16117);white-space:pre" xml:space="preserve"/>
   <text x="59.712582" y="19.506355" font-family="'Courier New'" font-size="6.35px" stroke-linecap="round" style="paint-order:stroke markers fill" xml:space="preserve"><tspan x="59.712582" y="19.506355" font-weight="bold"/></text>
  </g>
  <path d="m71.89 92.655c0 7.2362 30.675 0.31462 32.248 6.1351 2.2023-5.8204 33.822 0.47193 33.664-6.4497" fill="none" stroke="#000" stroke-linecap="round" stroke-linejoin="bevel" style="paint-order:stroke markers fill"/>
  <path d="m53.8 90.138c-7.0789-0.15731 1.4158-64.182-6.607-73.463 8.0228 9.1239 90.453-1.1012 90.767 5.3485" fill="none" stroke="#000" stroke-linecap="round" stroke-linejoin="bevel" style="paint-order:stroke markers fill"/>
  <g fill="#000000" font-family="'courier new'" font-size="7.0556px" stroke-linecap="round" stroke-width="1.5">
   <text x="45.72258" y="14.917634" style="paint-order:stroke markers fill" xml:space="preserve"><tspan x="45.72258" y="14.917634" fill="#000000" font-family="'courier new'" font-weight="bold" stroke-width="1.5">da.coords</tspan></text>
   <text x="83.890137" y="32.256378" style="paint-order:stroke markers fill" xml:space="preserve"><tspan x="83.890137" y="32.256378" fill="#000000" font-family="'courier new'" font-weight="bold" stroke-width="1.5">Coordinate</tspan></text>
   <text x="83.772652" y="66.853935" stroke="#ff8b80" style="paint-order:stroke markers fill" xml:space="preserve"><tspan x="83.772652" y="66.853935" fill="#000000" font-family="'courier new'" font-weight="bold" stroke="#ff8b80" stroke-width="1.5" style="paint-order:stroke markers fill">array_like</tspan></text>
   <text x="93.518753" y="65.833992" font-weight="bold" style="paint-order:stroke markers fill" xml:space="preserve"><tspan x="93.518753" y="65.833992"/><tspan x="93.518753" y="74.653442"/></text>
   <text transform="rotate(-90)" x="-85.982216" y="63.894077" style="paint-order:stroke markers fill" xml:space="preserve"><tspan x="-85.982216" y="63.894077" fill="#000000" font-family="'courier new'" font-weight="bold" stroke-width="1.5">Coordinate</tspan></text>
  </g>
  <text x="161.39937" y="67.171082" fill="none" font-family="'Courier New'" font-size="4.2333px" stroke="#000000" stroke-linecap="round" stroke-linejoin="bevel" style="paint-order:stroke markers fill" xml:space="preserve"><tspan x="161.39937" y="67.171082"/></text>
  <text transform="scale(.26458)" fill="none" font-family="'Courier New'" font-size="16px" stroke="#000000" stroke-linecap="round" stroke-linejoin="bevel" stroke-width="3.7795" style="paint-order:stroke markers fill;shape-inside:url(#rect19474);white-space:pre" xml:space="preserve"/>
 </g>
</svg>
