<?xml version="1.0" encoding="UTF-8"?>
<!-- Created with Inkscape (http://www.inkscape.org/) -->
<svg width="234.73mm" height="84.693mm" version="1.1" viewBox="0 0 234.73 84.693" xmlns="http://www.w3.org/2000/svg">
 <g transform="translate(17.617 -22.552)">
  <g transform="matrix(1.47 0 0 1.4705 65.718 39.782)">
   <rect transform="matrix(.68029 0 0 .68005 -48.931 -26.616)" x="71.926" y="39.139" width="66.148" height="51.467" fill="#ff8b80" stroke="#fff" stroke-linecap="round" stroke-width=".3" style="paint-order:stroke markers fill"/>
   <g fill="none" stroke="#000" stroke-width=".20405">
    <path d="m5 0v35"/>
    <path d="m10 0v35"/>
    <path d="m15 0v35"/>
    <path d="m20 0v35"/>
    <path d="m25 0v35"/>
    <path d="m30 0v35"/>
    <path d="m35 0v35"/>
    <path d="m40 0v35"/>
    <path d="m0 5h45"/>
    <path d="m0 10h45"/>
    <path d="m0 15h45"/>
    <path d="m0 20h45"/>
    <path d="m0 25h45"/>
    <path d="m0 30h45"/>
   </g>
   <rect width="45" height="35" fill="none" stroke="#000" stroke-width=".20405"/>
  </g>
  <g fill="#000000">
   <text x="83.957298" y="104.31049" font-family="'courier new'" font-size="7.0556px" stroke-linecap="round" stroke-width="1.5" style="paint-order:stroke markers fill" xml:space="preserve"><tspan x="83.957298" y="104.31049" fill="#000000" font-family="'courier new'" font-weight="bold" stroke-width="1.5">002.h5</tspan></text>
   <text x="75.518532" y="29.518055" font-family="'courier new'" font-size="7.0556px" stroke-linecap="round" stroke-width="1.5" style="paint-order:stroke markers fill" xml:space="preserve"><tspan x="75.518532" y="29.518055" fill="#000000" font-family="'courier new'" font-weight="bold" stroke-width="1.5">DataLayout</tspan></text>
   <text transform="matrix(.26458 0 0 .26458 9.2839 .80095)" font-family="'Courier New'" font-size="26.667px" style="paint-order:stroke markers fill;shape-inside:url(#rect16117);white-space:pre" xml:space="preserve"/>
   <text x="68.996521" y="20.30731" font-family="'Courier New'" font-size="6.35px" stroke-linecap="round" style="paint-order:stroke markers fill" xml:space="preserve"><tspan x="68.996521" y="20.30731" font-weight="bold"/></text>
  </g>
  <g>
   <g stroke-linecap="round">
    <path d="m65.682 93.299c0 7.2362 30.675 0.31462 32.248 6.1351 2.2023-5.8204 33.821 0.47194 33.664-6.4497" fill="none" stroke="#000" stroke-linejoin="bevel" style="paint-order:stroke markers fill"/>
    <path d="m-0.079015 37.926c0-7.2362 91.976-0.31462 96.693-6.1351 6.6034 5.8204 101.41-0.47193 100.94 6.4497" fill="none" stroke="#000" stroke-linejoin="bevel" style="paint-order:stroke markers fill"/>
    <text x="78.542206" y="67.780388" fill="#000000" font-family="'courier new'" font-size="7.0556px" stroke="#ff8b80" stroke-width="1.5" style="paint-order:stroke markers fill" xml:space="preserve"><tspan x="78.542206" y="67.780388" fill="#000000" font-family="'courier new'" font-weight="bold" stroke="#ff8b80" stroke-width="1.5" style="paint-order:stroke markers fill">DataSource</tspan></text>
   </g>
   <g transform="matrix(1.47 0 0 1.4705 -.42906 39.782)">
    <rect transform="matrix(.68029 0 0 .68005 -48.931 -26.616)" x="71.926" y="39.139" width="66.148" height="51.467" fill="#fff383" stroke="#fff" stroke-linecap="round" stroke-width=".3" style="paint-order:stroke markers fill"/>
    <g fill="none" stroke="#000" stroke-width=".20405">
     <path d="m5 0v35"/>
     <path d="m10 0v35"/>
     <path d="m15 0v35"/>
     <path d="m20 0v35"/>
     <path d="m25 0v35"/>
     <path d="m30 0v35"/>
     <path d="m35 0v35"/>
     <path d="m40 0v35"/>
     <path d="m0 5h45"/>
     <path d="m0 10h45"/>
     <path d="m0 15h45"/>
     <path d="m0 20h45"/>
     <path d="m0 25h45"/>
     <path d="m0 30h45"/>
    </g>
    <rect width="45" height="35" fill="none" stroke="#000" stroke-width=".20405"/>
   </g>
   <text x="17.810328" y="104.31049" fill="#000000" font-family="'courier new'" font-size="7.0556px" stroke-linecap="round" stroke-width="1.5" style="paint-order:stroke markers fill" xml:space="preserve"><tspan x="17.810328" y="104.31049" fill="#000000" font-family="'courier new'" font-weight="bold" stroke-width="1.5">001.h5</tspan></text>
   <path d="m-0.46473 93.299c0 7.2362 30.675 0.31462 32.248 6.1351 2.2023-5.8204 33.822 0.47194 33.664-6.4497" fill="none" stroke="#000" stroke-linecap="round" stroke-linejoin="bevel" style="paint-order:stroke markers fill"/>
   <g transform="matrix(1.47 0 0 1.4705 131.87 39.782)">
    <rect transform="matrix(.68029 0 0 .68005 -48.931 -26.616)" x="71.926" y="39.139" width="66.148" height="51.467" fill="#8ee7e8" stroke="#fff" stroke-linecap="round" stroke-width=".3" style="paint-order:stroke markers fill"/>
    <g fill="none" stroke="#000" stroke-width=".20405">
     <path d="m5 0v35"/>
     <path d="m10 0v35"/>
     <path d="m15 0v35"/>
     <path d="m20 0v35"/>
     <path d="m25 0v35"/>
     <path d="m30 0v35"/>
     <path d="m35 0v35"/>
     <path d="m40 0v35"/>
     <path d="m0 5h45"/>
     <path d="m0 10h45"/>
     <path d="m0 15h45"/>
     <path d="m0 20h45"/>
     <path d="m0 25h45"/>
     <path d="m0 30h45"/>
    </g>
    <rect width="45" height="35" fill="none" stroke="#000" stroke-width=".20405"/>
   </g>
   <text x="150.10526" y="104.31049" fill="#000000" font-family="'courier new'" font-size="7.0556px" stroke-linecap="round" stroke-width="1.5" style="paint-order:stroke markers fill" xml:space="preserve"><tspan x="150.10526" y="104.31049" fill="#000000" font-family="'courier new'" font-weight="bold" stroke-width="1.5">003.h5</tspan></text>
   <path d="m131.83 93.299c0 7.2362 30.675 0.31462 32.248 6.1351 2.2023-5.8204 33.822 0.47193 33.664-6.4497" fill="none" stroke="#000" stroke-linecap="round" stroke-linejoin="bevel" style="paint-order:stroke markers fill"/>
  </g>
  <g stroke-linecap="round">
   <text x="102.80269" y="66.634949" fill="#000000" font-family="'courier new'" font-size="7.0556px" font-weight="bold" stroke-width="1.5" style="paint-order:stroke markers fill" xml:space="preserve"><tspan x="102.80269" y="66.634949"/><tspan x="102.80269" y="75.454399"/></text>
   <text x="170.68332" y="67.972038" fill="none" font-family="'Courier New'" font-size="4.2333px" stroke="#000000" stroke-linejoin="bevel" style="paint-order:stroke markers fill" xml:space="preserve"><tspan x="170.68332" y="67.972038"/></text>
   <text transform="matrix(.26458 0 0 .26458 9.2839 .80095)" fill="none" font-family="'Courier New'" font-size="16px" stroke="#000000" stroke-linejoin="bevel" stroke-width="3.7795" style="paint-order:stroke markers fill;shape-inside:url(#rect19474);white-space:pre" xml:space="preserve"/>
   <text x="12.076736" y="67.780388" fill="#000000" font-family="'courier new'" font-size="7.0556px" stroke="#fff383" stroke-width="1.5" style="paint-order:stroke markers fill" xml:space="preserve"><tspan x="12.076736" y="67.780388" fill="#000000" font-family="'courier new'" font-weight="bold" stroke="#fff383" stroke-width="1.5" style="paint-order:stroke markers fill">DataSource</tspan></text>
   <text x="144.45151" y="67.780388" fill="#000000" font-family="'courier new'" font-size="7.0556px" stroke="#8ee7e8" stroke-width="1.5" style="paint-order:stroke markers fill" xml:space="preserve"><tspan x="144.45151" y="67.780388" fill="#000000" font-family="'courier new'" font-weight="bold" stroke="#8ee7e8" stroke-width="1.5" style="paint-order:stroke markers fill">DataSource</tspan></text>
  </g>
 </g>
</svg>
